<?xml version="1.0" encoding="UTF-8"?>
<svg version="1.1" xmlns="http://www.w3.org/2000/svg" width="500" height="500">
<path d="M0 0 C0 0.66 0 1.32 0 2 C-8.10350405 5.28331629 -16.2250544 8.49398234 -24.42675781 11.52441406 C-28.63529853 13.08816582 -32.81479045 14.71383114 -36.984375 16.37890625 C-38.53801758 16.997052 -38.53801758 16.997052 -40.12304688 17.62768555 C-42.17871354 18.44767313 -44.23218062 19.27320056 -46.28320312 20.10473633 C-47.22615234 20.48009521 -48.16910156 20.8554541 -49.140625 21.2421875 C-49.98141602 21.5810498 -50.82220703 21.91991211 -51.68847656 22.26904297 C-54 23 -54 23 -58 23 C-57.99777939 23.59150345 -57.99555878 24.1830069 -57.99327087 24.79243469 C-57.79455076 80.2890898 -57.79455076 80.2890898 -59 102 C-58.01 102.37125 -58.01 102.37125 -57 102.75 C-49.4792023 105.88366571 -42.54573893 109.95116661 -35.5625 114.125 C-33.61983032 115.27871092 -31.6771215 116.43235595 -29.734375 117.5859375 C-27.82280765 118.72377521 -25.91134584 119.86179024 -24 121 C-20.77311075 122.92053892 -17.54383276 124.83694886 -14.3125 126.75 C-13.61261963 127.16781738 -12.91273926 127.58563477 -12.19165039 128.01611328 C-9.48134003 129.61973898 -6.99773934 131.00075355 -4 132 C-4 132.66 -4 133.32 -4 134 C-3.443125 134.103125 -2.88625 134.20625 -2.3125 134.3125 C0.44176578 135.13133577 2.58727657 136.45853781 5 138 C4.67 138.99 4.34 139.98 4 141 C-0.90560505 139.58114808 -5.04042887 137.38590907 -9.375 134.75 C-10.8758831 133.85216382 -12.37721243 132.9550733 -13.87890625 132.05859375 C-14.69246582 131.57116699 -15.50602539 131.08374023 -16.34423828 130.58154297 C-21.31268832 127.622762 -26.31481154 124.72152084 -31.3125 121.8125 C-33.26698231 120.67327182 -35.22141049 119.53395077 -37.17578125 118.39453125 C-38.60398193 117.56236084 -38.60398193 117.56236084 -40.06103516 116.71337891 C-42.09248996 115.52906675 -44.12337843 114.34378281 -46.15380859 113.15771484 C-47.18973145 112.55266113 -48.2256543 111.94760742 -49.29296875 111.32421875 C-50.68358521 110.51150513 -50.68358521 110.51150513 -52.10229492 109.68237305 C-54.29087902 108.41170719 -56.48340853 107.14958068 -58.68110657 105.89485168 C-59.7763414 105.26955063 -60.87157623 104.64424957 -62 104 C-62.11574249 93.360457 -62.20463835 82.72106323 -62.25906086 72.0810194 C-62.28517834 67.14061977 -62.32061546 62.20065015 -62.37719727 57.26049805 C-62.43144059 52.49480769 -62.46140433 47.72953147 -62.47438622 42.96355629 C-62.48363995 41.14338979 -62.50171023 39.32324649 -62.52865028 37.50325584 C-62.56483977 34.95764189 -62.56994978 32.41374884 -62.56762695 29.86791992 C-62.59459152 28.73395782 -62.59459152 28.73395782 -62.62210083 27.5770874 C-62.60127258 25.47380066 -62.60127258 25.47380066 -62 22 C-59.60758972 20.07048035 -59.60758972 20.07048035 -57 19 C-56.24460938 18.6714502 -55.48921875 18.34290039 -54.7109375 18.00439453 C-53.94007813 17.71677246 -53.16921875 17.42915039 -52.375 17.1328125 C-51.51052246 16.80724365 -50.64604492 16.4816748 -49.75537109 16.14624023 C-48.84609863 15.80923096 -47.93682617 15.47222168 -47 15.125 C-45.09628674 14.41033584 -43.19264064 13.69549275 -41.2890625 12.98046875 C-40.37286133 12.63806152 -39.45666016 12.2956543 -38.51269531 11.94287109 C-35.45805414 10.79663866 -32.41575858 9.62001722 -29.375 8.4375 C-27.2500274 7.62492835 -25.12502394 6.81243739 -23 6 C-21.84975342 5.55213135 -21.84975342 5.55213135 -20.67626953 5.09521484 C-18.10064822 4.09448945 -15.51959099 3.10889671 -12.9375 2.125 C-12.11491699 1.80200928 -11.29233398 1.47901855 -10.44482422 1.14624023 C-9.66768066 0.85305908 -8.89053711 0.55987793 -8.08984375 0.2578125 C-7.39753662 -0.0088623 -6.70522949 -0.27553711 -5.99194336 -0.55029297 C-3.66418919 -1.07581364 -2.24194211 -0.7436533 0 0 Z " fill="#90B4AD" transform="translate(241,347)"/>
<path d="M0 0 C4.24595878 1.26013104 7.58520018 2.8382115 11.25 5.3125 C16.32303298 8.63885085 21.51564534 11.41842742 27 14 C27 14.66 27 15.32 27 16 C27.71929687 16.09925781 28.43859375 16.19851562 29.1796875 16.30078125 C32.3802249 17.09426628 34.39887338 18.34431289 37.125 20.1875 C45.09207691 25.42025038 53.44947798 29.80540429 62 34 C62 34.66 62 35.32 62 36 C63.98 36.495 63.98 36.495 66 37 C66.0462719 47.65691222 66.08184295 58.31380068 66.10362434 68.97079277 C66.11407654 73.91887832 66.12826183 78.86689532 66.15087891 83.81494141 C66.17255623 88.58707481 66.1845578 93.35914213 66.18975449 98.13132095 C66.19345946 99.9550493 66.200694 101.77877389 66.21146011 103.60247421 C66.22590721 106.15026512 66.22798081 108.69778042 66.22705078 111.24560547 C66.23424133 112.00517548 66.24143188 112.76474548 66.24884033 113.54733276 C66.22810432 118.77189568 66.22810432 118.77189568 64 121 C61.55112767 122.02279871 59.11707238 122.97064436 56.625 123.875 C55.90546143 124.14111084 55.18592285 124.40722168 54.44458008 124.68139648 C50.21920209 126.23218763 45.97234623 127.683016 41.6875 129.0625 C37.92709547 130.28740389 34.38704144 131.68433851 30.8125 133.375 C25.98134107 135.63519131 21.07231779 137.55527375 16.0625 139.375 C14.96095581 139.78758057 14.96095581 139.78758057 13.8371582 140.20849609 C10.10475635 141.53666403 7.77729918 142.20744168 4 141 C4 140.34 4 139.68 4 139 C15.72676155 134.28010012 27.45543726 129.59152958 39.375 125.375 C44.00667273 123.73546983 48.50557397 121.97754745 53 120 C55.64 119.01 58.28 118.02 61 117 C61.66 91.26 62.32 65.52 63 39 C61.02 38.34 59.04 37.68 57 37 C55.52381424 36.26166693 54.06964515 35.47718393 52.64453125 34.64453125 C51.86271484 34.19037842 51.08089844 33.73622559 50.27539062 33.26831055 C49.46263672 32.78789307 48.64988281 32.30747559 47.8125 31.8125 C46.96751953 31.31854736 46.12253906 30.82459473 45.25195312 30.31567383 C39.91120219 27.17752154 34.66696985 23.91609157 29.46875 20.546875 C25.10092985 17.8100763 20.5490611 15.41889426 16 13 C4.37006685 6.77356049 4.37006685 6.77356049 -1 3 C-0.67 2.01 -0.34 1.02 0 0 Z " fill="#729B94" transform="translate(263,12)"/>
<path d="M0 0 C1.32 0 2.64 0 4 0 C4 30.69 4 61.38 4 93 C-9.39851435 98.58271431 -9.39851435 98.58271431 -16.0625 101 C-20.61075431 102.67366293 -25.05456918 104.42177141 -29.4375 106.5 C-34.73368919 108.99232433 -40.18223934 110.8662671 -45.71337891 112.75634766 C-50.91551502 114.55506423 -55.87084445 116.65608875 -60.80078125 119.1171875 C-63 120 -63 120 -67 120 C-66.89453125 118.15234375 -66.89453125 118.15234375 -66 116 C-63.26171875 114.69140625 -63.26171875 114.69140625 -59.6875 113.5625 C-58.3949646 113.13674294 -57.10330711 112.70831224 -55.8125 112.27734375 C-54.84183594 111.95805908 -54.84183594 111.95805908 -53.8515625 111.63232422 C-49.13449232 110.02140495 -44.58555115 107.94638502 -40 106 C-37.19043256 104.82620655 -34.37714502 103.6615599 -31.5625 102.5 C-30.83909424 102.2014209 -30.11568848 101.9028418 -29.37036133 101.59521484 C-23.86170848 99.33179221 -18.31957466 97.17588265 -12.75 95.06640625 C-10.42519005 94.16488194 -8.14984553 93.20644122 -5.875 92.1875 C-3 91 -3 91 0 91 C0 60.97 0 30.94 0 0 Z " fill="#93B5AF" transform="translate(325,358)"/>
<path d="M0 0 C-0.10546875 1.84765625 -0.10546875 1.84765625 -1 4 C-3.73828125 5.30859375 -3.73828125 5.30859375 -7.3125 6.4375 C-8.6050354 6.86325706 -9.89669289 7.29168776 -11.1875 7.72265625 C-11.83460938 7.9355127 -12.48171875 8.14836914 -13.1484375 8.36767578 C-17.86538601 9.9785535 -22.41509123 12.05237931 -27 14 C-36.20818893 17.86664211 -45.44072743 21.62103325 -54.82324219 25.04663086 C-57.37284991 25.98274266 -59.84618089 26.92056664 -62.26171875 28.16796875 C-64 29 -64 29 -67 29 C-67 59.03 -67 89.06 -67 120 C-68.32 120 -69.64 120 -71 120 C-71 89.31 -71 58.62 -71 27 C-57.60148565 21.41728569 -57.60148565 21.41728569 -50.9375 19 C-46.38924569 17.32633707 -41.94543082 15.57822859 -37.5625 13.5 C-32.26631081 11.00767567 -26.81776066 9.1337329 -21.28662109 7.24365234 C-16.08448498 5.44493577 -11.12915555 3.34391125 -6.19921875 0.8828125 C-4 0 -4 0 0 0 Z " fill="#93B6AF" transform="translate(250,22)"/>
<path d="M0 0 C-2.47972781 3.71959171 -4.86725977 4.17131614 -8.9375 5.375 C-13.56250116 6.82326038 -17.99427835 8.33826359 -22.375 10.4375 C-27.60991499 12.92623008 -32.97420612 14.83344759 -38.46044922 16.68139648 C-44.80806068 18.84421301 -50.75187599 21.396615 -57 24 C-57.33 53.7 -57.66 83.4 -58 114 C-59.32 114 -60.64 114 -62 114 C-62 83.31 -62 52.62 -62 21 C-55.565 18.525 -55.565 18.525 -49 16 C-45.74976325 14.51418943 -45.74976325 14.51418943 -42.5 13.02734375 C-38.63043891 11.43719599 -34.64147145 10.21208471 -30.66210938 8.93017578 C-25.7603258 7.32293268 -21.16131218 5.33255156 -16.5 3.140625 C-5.40939597 -1.91946309 -5.40939597 -1.91946309 0 0 Z " fill="#81A49E" transform="translate(285,111)"/>
<path d="M0 0 C-1 3 -1 3 -2.83496094 4.01147461 C-3.62676758 4.30546143 -4.41857422 4.59944824 -5.234375 4.90234375 C-6.11246826 5.23331055 -6.99056152 5.56427734 -7.89526367 5.90527344 C-8.83732666 6.2459082 -9.77938965 6.58654297 -10.75 6.9375 C-12.18339722 7.46972168 -12.18339722 7.46972168 -13.64575195 8.01269531 C-19.78475953 10.26807385 -25.94746772 12.29925694 -32.22265625 14.140625 C-36.59785281 15.49441296 -40.76291289 17.26170785 -45 19 C-50.445 20.98 -50.445 20.98 -56 23 C-56.33 51.38 -56.66 79.76 -57 109 C-58.32 109 -59.64 109 -61 109 C-61 79.63 -61 50.26 -61 20 C-40.9232513 12.60330311 -40.9232513 12.60330311 -32.6015625 9.88671875 C-30.13108387 9.04467874 -27.72725079 8.11432097 -25.3125 7.125 C-20.5997077 5.20754039 -15.84422732 3.42439434 -11.0625 1.6875 C-10.31589111 1.4085791 -9.56928223 1.1296582 -8.80004883 0.84228516 C-3.34598542 -1.11532847 -3.34598542 -1.11532847 0 0 Z " fill="#93B6B0" transform="translate(430,391)"/>
<path d="M0 0 C1.32 0 2.64 0 4 0 C4.04626844 11.43921636 4.08184119 22.87841059 4.10362434 34.31770134 C4.11407729 39.62898938 4.12826397 44.94021356 4.15087891 50.25146484 C4.17255352 55.37372595 4.18455723 60.4959255 4.18975449 65.61822891 C4.19345994 67.5759287 4.20069541 69.53362498 4.21146011 71.49129868 C4.22590357 74.22588221 4.22798096 76.9602089 4.22705078 79.69482422 C4.23424133 80.51049866 4.24143188 81.3261731 4.24884033 82.16656494 C4.22810432 87.77189568 4.22810432 87.77189568 2 90 C0.3481568 90.65054605 -1.3319841 91.23028962 -3.0234375 91.76953125 C-4.03865479 92.09848389 -5.05387207 92.42743652 -6.09985352 92.76635742 C-7.18065186 93.11158447 -8.2614502 93.45681152 -9.375 93.8125 C-16.7992743 96.22916092 -24.05138454 98.71221868 -31.203125 101.84375 C-39.24152588 105.16688779 -47.6326173 107.65370447 -56 110 C-56.33 108.68 -56.66 107.36 -57 106 C-38.02640386 99.31213349 -38.02640386 99.31213349 -28.875 96.3125 C-23.14359414 94.41853651 -17.58829162 92.27943474 -12 90 C-8.37 88.68 -4.74 87.36 -1 86 C-0.67 57.62 -0.34 29.24 0 0 Z " fill="#95B4AF" transform="translate(135,0)"/>
<path d="M0 0 C1.32 0 2.64 0 4 0 C4 29.7 4 59.4 4 90 C0.7 90.99 -2.6 91.98 -6 93 C-8.33832086 93.98828135 -10.67164636 94.9884597 -13 96 C-16.39687039 97.20655811 -19.82249567 98.32141833 -23.25 99.4375 C-29.92638977 101.63165953 -36.5683358 103.86735607 -43.13671875 106.37109375 C-45 107 -45 107 -47 107 C-46.67 105.35 -46.34 103.7 -46 102 C-44.68563965 101.58488159 -44.68563965 101.58488159 -43.34472656 101.16137695 C-40.033268 100.112632 -36.72344692 99.05898676 -33.41455078 98.00219727 C-31.99360926 97.54943844 -30.57207629 97.09853082 -29.14990234 96.6496582 C-21.03450213 94.08674953 -13.13157979 91.38166346 -5.34667969 87.90698242 C-3 87 -3 87 0 87 C0 58.29 0 29.58 0 0 Z " fill="#92B6B2" transform="translate(440,345)"/>
<path d="M0 0 C-0.33 1.65 -0.66 3.3 -1 5 C-1.87624023 5.27674561 -2.75248047 5.55349121 -3.65527344 5.83862305 C-6.966732 6.887368 -10.27655308 7.94101324 -13.58544922 8.99780273 C-15.00639074 9.45056156 -16.42792371 9.90146918 -17.85009766 10.3503418 C-25.96549787 12.91325047 -33.86842021 15.61833654 -41.65332031 19.09301758 C-44 20 -44 20 -47 20 C-47 48.71 -47 77.42 -47 107 C-48.32 107 -49.64 107 -51 107 C-51 77.63 -51 48.26 -51 18 C-47.21668942 16.10834471 -43.9966055 14.53878058 -40.0859375 13.203125 C-38.7105481 12.72939453 -38.7105481 12.72939453 -37.30737305 12.24609375 C-36.33968994 11.91738281 -35.37200684 11.58867188 -34.375 11.25 C-32.32670462 10.54721967 -30.27852997 9.84408741 -28.23046875 9.140625 C-27.19712402 8.78677734 -26.1637793 8.43292969 -25.09912109 8.06835938 C-22.09853759 7.03396884 -19.10480198 5.98216083 -16.11328125 4.921875 C-15.19820801 4.59799805 -14.28313477 4.27412109 -13.34033203 3.94042969 C-11.59968424 3.32336956 -9.8597487 2.70429581 -8.12060547 2.08300781 C-2.22200597 0 -2.22200597 0 0 0 Z " fill="#DDE7E5" transform="translate(115,48)"/>
<path d="M0 0 C0.99 0 1.98 0 3 0 C3 30.69 3 61.38 3 93 C-3.64291888 96.01950858 -10.04607253 98.88004235 -16.875 101.3125 C-18.51080614 101.90517615 -20.14620705 102.49897166 -21.78125 103.09375 C-22.62558594 103.40054688 -23.46992188 103.70734375 -24.33984375 104.0234375 C-29.03338942 105.74647189 -33.704087 107.52920137 -38.375 109.3125 C-39.70313721 109.81873901 -39.70313721 109.81873901 -41.05810547 110.33520508 C-41.89229004 110.65384521 -42.72647461 110.97248535 -43.5859375 111.30078125 C-44.36138916 111.59694336 -45.13684082 111.89310547 -45.93579102 112.19824219 C-47.60901123 112.84813635 -49.26957785 113.53054455 -50.92578125 114.22265625 C-53.38365588 115.14378064 -55.3967943 115.14875461 -58 115 C-57.44140625 113.1796875 -57.44140625 113.1796875 -56 111 C-53.62097485 109.85398788 -51.42238015 108.96280836 -48.9375 108.125 C-48.23012695 107.87306885 -47.52275391 107.6211377 -46.79394531 107.36157227 C-44.53406397 106.55997555 -42.26781995 105.77882284 -40 105 C-37.08187976 103.98330256 -34.16583951 102.96071739 -31.25 101.9375 C-30.53827637 101.6890332 -29.82655273 101.44056641 -29.09326172 101.18457031 C-23.98571014 99.38801531 -18.97820891 97.41504567 -14.00390625 95.2734375 C-9.69740068 93.44779275 -5.34294602 91.73717841 -1 90 C-0.67 60.3 -0.34 30.6 0 0 Z " fill="#8DB0A9" transform="translate(281,275)"/>
<path d="M0 0 C4.24595878 1.26013104 7.58520018 2.8382115 11.25 5.3125 C16.32303298 8.63885085 21.51564534 11.41842742 27 14 C27 14.66 27 15.32 27 16 C27.71929687 16.09925781 28.43859375 16.19851562 29.1796875 16.30078125 C32.3802249 17.09426628 34.39887338 18.34431289 37.125 20.1875 C45.09207691 25.42025038 53.44947798 29.80540429 62 34 C62 34.66 62 35.32 62 36 C63.98 36.495 63.98 36.495 66 37 C66 64.06 66 91.12 66 119 C65.67 119 65.34 119 65 119 C64.67 103.16 64.34 87.32 64 71 C63.67 71 63.34 71 63 71 C63 60.44 63 49.88 63 39 C61.02 38.34 59.04 37.68 57 37 C55.52381424 36.26166693 54.06964515 35.47718393 52.64453125 34.64453125 C51.86271484 34.19037842 51.08089844 33.73622559 50.27539062 33.26831055 C49.46263672 32.78789307 48.64988281 32.30747559 47.8125 31.8125 C46.96751953 31.31854736 46.12253906 30.82459473 45.25195312 30.31567383 C39.91120219 27.17752154 34.66696985 23.91609157 29.46875 20.546875 C25.10092985 17.8100763 20.5490611 15.41889426 16 13 C4.37006685 6.77356049 4.37006685 6.77356049 -1 3 C-0.67 2.01 -0.34 1.02 0 0 Z " fill="#8CB1AA" transform="translate(263,12)"/>
<path d="M0 0 C0.99 0 1.98 0 3 0 C3 29.7 3 59.4 3 90 C1.68 90 0.36 90 -1 90 C-1.02312228 78.41311598 -1.0409145 66.82623741 -1.05181217 55.23933506 C-1.05704125 49.85966238 -1.06413935 44.48000542 -1.07543945 39.1003418 C-1.08626745 33.91325157 -1.09227665 28.72617651 -1.09487724 23.53907585 C-1.09673165 21.5554372 -1.10035256 19.57179942 -1.10573006 17.58816719 C-1.11293932 14.81990864 -1.11399099 12.05171362 -1.11352539 9.28344727 C-1.11712067 8.45482681 -1.12071594 7.62620636 -1.12442017 6.7724762 C-1.11405216 1.11405216 -1.11405216 1.11405216 0 0 Z " fill="#A8C7C3" transform="translate(471,389)"/>
<path d="M0 0 C1.32 0 2.64 0 4 0 C4 29.37 4 58.74 4 89 C2.02 89.495 2.02 89.495 0 90 C0 60.3 0 30.6 0 0 Z " fill="#99B5AF" transform="translate(34,21)"/>
<path d="M0 0 C3 3 3 3 3.34057617 5.54370117 C3.32486572 6.53345947 3.30915527 7.52321777 3.29296875 8.54296875 C3.28330078 9.61611328 3.27363281 10.68925781 3.26367188 11.79492188 C3.23853516 12.91447266 3.21339844 14.03402344 3.1875 15.1875 C3.16719727 16.88422852 3.16719727 16.88422852 3.14648438 18.61523438 C3.11109958 21.41063317 3.06172948 24.20507892 3 27 C3.74950928 27.29406738 4.49901855 27.58813477 5.27124023 27.89111328 C12.7173908 30.91700716 19.55219163 35.00969902 26.4375 39.125 C28.38016968 40.27871092 30.3228785 41.43235595 32.265625 42.5859375 C34.17719235 43.72377521 36.08865416 44.86179024 38 46 C41.22688925 47.92053892 44.45616724 49.83694886 47.6875 51.75 C48.38738037 52.16781738 49.08726074 52.58563477 49.80834961 53.01611328 C52.51865997 54.61973898 55.00226066 56.00075355 58 57 C58 57.66 58 58.32 58 59 C58.8353125 59.1546875 58.8353125 59.1546875 59.6875 59.3125 C62.44176578 60.13133577 64.58727657 61.45853781 67 63 C66.67 63.99 66.34 64.98 66 66 C61.09439495 64.58114808 56.95957113 62.38590907 52.625 59.75 C51.1241169 58.85216382 49.62278757 57.9550733 48.12109375 57.05859375 C47.30753418 56.57116699 46.49397461 56.08374023 45.65576172 55.58154297 C40.68731168 52.622762 35.68518846 49.72152084 30.6875 46.8125 C28.73301769 45.67327182 26.77858951 44.53395077 24.82421875 43.39453125 C23.39601807 42.56236084 23.39601807 42.56236084 21.93896484 41.71337891 C19.90751004 40.52906675 17.87662157 39.34378281 15.84619141 38.15771484 C14.81026855 37.55266113 13.7743457 36.94760742 12.70703125 36.32421875 C11.31641479 35.51150513 11.31641479 35.51150513 9.89770508 34.68237305 C6.60771146 32.77224195 3.30305286 30.88745878 0 29 C0 19.43 0 9.86 0 0 Z " fill="#91B0AA" transform="translate(179,422)"/>
<path d="M0 0 C1.32 0 2.64 0 4 0 C4.15888642 27.01558101 3.71816748 53.99422888 3 81 C1.68 81 0.36 81 -1 81 C-1.15279533 53.98343457 -0.74130221 27.00627032 0 0 Z " fill="#7FA29C" transform="translate(478,108)"/>
<path d="M0 0 C1.32 0 2.64 0 4 0 C4.14309723 14.61181671 3.91059688 29.20550763 3.5625 43.8125 C3.54285187 44.67551727 3.52320374 45.53853455 3.50296021 46.42770386 C3.22914266 58.3018123 2.73078296 70.14517605 2 82 C1.01 82 0.02 82 -1 82 C-1.12633038 54.64655818 -0.89952369 27.33977852 0 0 Z " fill="#8BAEA7" transform="translate(140,408)"/>
<path d="M0 0 C0.66 0 1.32 0 2 0 C2 26.73 2 53.46 2 81 C0.68 81 -0.64 81 -2 81 C-2.14406687 63.20219996 -1.96069582 45.41555123 -1.62667847 27.62078857 C-1.58378994 25.3264259 -1.54255839 23.03203168 -1.50296021 20.73760986 C-1.44596915 17.48510523 -1.38225571 14.23280467 -1.31640625 10.98046875 C-1.29132996 9.49027977 -1.29132996 9.49027977 -1.26574707 7.96998596 C-1.23583679 6.6123539 -1.23583679 6.6123539 -1.20532227 5.22729492 C-1.18977798 4.43175705 -1.1742337 3.63621918 -1.15821838 2.8165741 C-1 1 -1 1 0 0 Z " fill="#7CA59C" transform="translate(28,311)"/>
<path d="M0 0 C0.99 0 1.98 0 3 0 C3 29.04 3 58.08 3 88 C1.515 88.495 1.515 88.495 0 89 C0 59.63 0 30.26 0 0 Z " fill="#769B97" transform="translate(64,66)"/>
<path d="M0 0 C0.66 0 1.32 0 2 0 C2 27.39 2 54.78 2 83 C0.68 83 -0.64 83 -2 83 C-1.89266744 72.32573241 -1.78006898 61.6515348 -1.66066074 50.97739506 C-1.60538798 46.02149288 -1.55196116 41.06558486 -1.50268555 36.10961914 C-1.45510604 31.3309593 -1.40276582 26.55237358 -1.34705925 21.7738018 C-1.32660653 19.94648511 -1.30789839 18.11914806 -1.29092598 16.29179573 C-1.26694626 13.74141166 -1.23688336 11.19116903 -1.20532227 8.64086914 C-1.1995668 7.87770386 -1.19381134 7.11453857 -1.18788147 6.32824707 C-1.11405216 1.11405216 -1.11405216 1.11405216 0 0 Z " fill="#80A5A0" transform="translate(366,9)"/>
<path d="M0 0 C-0.10546875 1.84765625 -0.10546875 1.84765625 -1 4 C-3.73828125 5.30859375 -3.73828125 5.30859375 -7.3125 6.4375 C-8.6050354 6.86325706 -9.89669289 7.29168776 -11.1875 7.72265625 C-11.83460938 7.9355127 -12.48171875 8.14836914 -13.1484375 8.36767578 C-17.86538601 9.9785535 -22.41509123 12.05237931 -27 14 C-39.84632989 19.39434632 -52.75086405 24.66502925 -66 29 C-66 28.34 -66 27.68 -66 27 C-67.32 26.67 -68.64 26.34 -70 26 C-69.4423999 25.78907715 -68.8847998 25.5781543 -68.31030273 25.36083984 C-56.82861798 21.01348597 -45.38281588 16.60076369 -34 12 C-25.53018655 8.58964677 -17.04684173 5.22444538 -8.51171875 1.98046875 C-3.43824701 0 -3.43824701 0 0 0 Z " fill="#83A89F" transform="translate(250,22)"/>
<path d="M0 0 C-1 3 -1 3 -2.83496094 4.01147461 C-3.62676758 4.30546143 -4.41857422 4.59944824 -5.234375 4.90234375 C-6.11246826 5.23331055 -6.99056152 5.56427734 -7.89526367 5.90527344 C-8.83732666 6.2459082 -9.77938965 6.58654297 -10.75 6.9375 C-12.18339722 7.46972168 -12.18339722 7.46972168 -13.64575195 8.01269531 C-19.78085505 10.2666394 -25.93945899 12.29740916 -32.2109375 14.13671875 C-36.58436919 15.49039999 -40.77452104 17.24779627 -45 19 C-52.48085106 22 -52.48085106 22 -56 22 C-56 21.34 -56 20.68 -56 20 C-56.99 19.67 -57.98 19.34 -59 19 C-58.00371582 18.6757605 -58.00371582 18.6757605 -56.98730469 18.3449707 C-41.3836248 13.31434189 -41.3836248 13.31434189 -26.14453125 7.30078125 C-21.62612888 5.43167816 -17.04113356 3.77107138 -12.4375 2.125 C-11.55481445 1.80200928 -10.67212891 1.47901855 -9.76269531 1.14624023 C-8.9322168 0.85305908 -8.10173828 0.55987793 -7.24609375 0.2578125 C-6.50029053 -0.0088623 -5.7544873 -0.27553711 -4.98608398 -0.55029297 C-3 -1 -3 -1 0 0 Z " fill="#86ACA4" transform="translate(430,391)"/>
<path d="M0 0 C0.495 0.391875 0.99 0.78375 1.5 1.1875 C-1.19993909 3.88743909 -4.35111714 4.74100686 -7.875 6 C-12.79651375 7.79841412 -17.67710927 9.63478205 -22.5 11.6875 C-29.10475436 14.48459543 -35.8151144 16.98165341 -42.54492188 19.45874023 C-43.91994024 19.97128142 -45.29071261 20.49528757 -46.65820312 21.02758789 C-50.43483369 22.48952331 -53.41852285 23.57013848 -57.5 23.1875 C-56.94140625 21.3671875 -56.94140625 21.3671875 -55.5 19.1875 C-53.12097485 18.04148788 -50.92238015 17.15030836 -48.4375 16.3125 C-47.73012695 16.06056885 -47.02275391 15.8086377 -46.29394531 15.54907227 C-44.03406397 14.74747555 -41.76781995 13.96632284 -39.5 13.1875 C-36.58187963 12.17080252 -33.66587033 11.14812977 -30.75 10.125 C-30.03972656 9.8772583 -29.32945312 9.6295166 -28.59765625 9.37426758 C-21.64867722 6.93166928 -14.86653872 4.11539519 -8.12890625 1.140625 C-3.04041962 -0.98813638 -3.04041962 -0.98813638 0 0 Z " fill="#88ACA4" transform="translate(280.5,366.8125)"/>
<path d="M0 0 C0 0.99 0 1.98 0 3 C-1.23234375 3.37511719 -2.4646875 3.75023438 -3.734375 4.13671875 C-12.00444559 6.68322388 -20.08672188 9.31128169 -28.02734375 12.7734375 C-36.12849373 16.11609334 -44.56901954 18.63587104 -53 21 C-53.33 19.68 -53.66 18.36 -54 17 C-35.02478283 10.31156211 -35.02478283 10.31156211 -25.875 7.3125 C-19.24168557 5.12062219 -12.78168211 2.63517012 -6.37109375 -0.13671875 C-3.72756349 -1.09919023 -2.59447665 -0.96091728 0 0 Z " fill="#83A8A0" transform="translate(132,89)"/>
<path d="M0 0 C0.33 0 0.66 0 1 0 C1 27.06 1 54.12 1 82 C-3.44992574 83.77997029 -5.43711531 84.21222719 -10 84 C-8.515 83.505 -8.515 83.505 -7 83 C-6.67 82.01 -6.34 81.02 -6 80 C-4.515 79.505 -4.515 79.505 -3 79 C-2.98969254 78.43845718 -2.97938507 77.87691437 -2.96876526 77.2983551 C-2.86092315 71.47506534 -2.74630792 65.65193736 -2.62768555 59.82885742 C-2.58426493 57.65311047 -2.54259529 55.47732786 -2.50268555 53.30151367 C-2.44515498 50.18136832 -2.38141177 47.06140367 -2.31640625 43.94140625 C-2.29969376 42.96224747 -2.28298126 41.98308868 -2.26576233 40.97425842 C-2.2358445 39.62297096 -2.2358445 39.62297096 -2.20532227 38.24438477 C-2.18977798 37.44718521 -2.1742337 36.64998566 -2.15821838 35.82862854 C-2 34 -2 34 -1 33 C-0.84019563 30.55391002 -0.74070553 28.13268942 -0.68359375 25.68359375 C-0.66281265 24.95253922 -0.64203156 24.22148468 -0.62062073 23.46827698 C-0.55504976 21.12478344 -0.49620568 18.78117461 -0.4375 16.4375 C-0.39432192 14.85220145 -0.35070787 13.26691471 -0.30664062 11.68164062 C-0.1993608 7.78787963 -0.0981151 3.89400228 0 0 Z " fill="#729F95" transform="translate(327,50)"/>
<path d="M0 0 C0.78375 0.4125 1.5675 0.825 2.375 1.25 C-0.34217585 3.06145057 -2.44319052 4.0001173 -5.4921875 5.0546875 C-6.45431152 5.38895752 -7.41643555 5.72322754 -8.40771484 6.06762695 C-9.42816895 6.41656006 -10.44862305 6.76549316 -11.5 7.125 C-12.53979004 7.48360107 -13.57958008 7.84220215 -14.65087891 8.21166992 C-21.04898844 10.40574944 -27.46053345 12.50489047 -33.94140625 14.44140625 C-37.86624529 15.62399967 -41.74308447 16.93409643 -45.625 18.25 C-45.295 16.6 -44.965 14.95 -44.625 13.25 C-43.73828613 12.96801758 -42.85157227 12.68603516 -41.93798828 12.39550781 C-38.60094006 11.33235429 -35.26498726 10.26588604 -31.9296875 9.19726562 C-30.49488176 8.73828207 -29.05966993 8.28056573 -27.62402344 7.82421875 C-25.54249325 7.16230957 -23.46224358 6.49659833 -21.3828125 5.828125 C-20.7073941 5.61117981 -20.03197571 5.39423462 -19.33609009 5.17071533 C-14.64335764 3.64035001 -10.10119874 1.88878899 -5.59960938 -0.1328125 C-3.625 -0.75 -3.625 -0.75 0 0 Z " fill="#7EA79D" transform="translate(438.625,433.75)"/>
<path d="M0 0 C0 0.66 0 1.32 0 2 C-7.78498181 5.15425987 -15.58601719 8.26456713 -23.4375 11.25 C-24.39269531 11.61859131 -24.39269531 11.61859131 -25.3671875 11.99462891 C-29.86066083 13.68902335 -34.33409626 14.90457188 -39 16 C-39 15.01 -39 14.02 -39 13 C-31.92700572 9.16879477 -24.48471651 6.46248817 -16.94482422 3.71826172 C-15.17499282 3.06462828 -13.41680475 2.37968373 -11.66015625 1.69140625 C-10.21962891 1.13259766 -10.21962891 1.13259766 -8.75 0.5625 C-7.50476563 0.06943359 -7.50476563 0.06943359 -6.234375 -0.43359375 C-3.74739115 -1.06403546 -2.39435277 -0.84022012 0 0 Z " fill="#779E96" transform="translate(241,347)"/>
<path d="M0 0 C0 0.66 0 1.32 0 2 C1.32 2.33 2.64 2.66 4 3 C4 30.06 4 57.12 4 85 C3.67 85 3.34 85 3 85 C2.67 69.16 2.34 53.32 2 37 C1.67 37 1.34 37 1 37 C1 26.44 1 15.88 1 5 C-0.98 4.34 -2.96 3.68 -5 3 C-5.66 2.01 -6.32 1.02 -7 0 C-4.3333581 -1.33332095 -2.83319697 -0.67102033 0 0 Z " fill="#A5C2BE" transform="translate(325,46)"/>
<path d="M0 0 C1.32 0 2.64 0 4 0 C4.0494186 5.21442276 4.08572831 10.42870934 4.10986328 15.64331055 C4.11992411 17.41742324 4.13357422 19.19151935 4.15087891 20.96557617 C4.17512378 23.51485284 4.18648218 26.06391037 4.1953125 28.61328125 C4.20563507 29.40712723 4.21595764 30.20097321 4.22659302 31.01887512 C4.2273811 34.88223043 4.19440369 36.70839446 2 40 C1.34 40 0.68 40 0 40 C0 26.8 0 13.6 0 0 Z " fill="#A0C0BB" transform="translate(478,108)"/>
<path d="M0 0 C0.495 0.99 0.495 0.99 1 2 C0.41621582 2.22139648 -0.16756836 2.44279297 -0.76904297 2.67089844 C-3.4713788 3.69634552 -6.17319059 4.72316677 -8.875 5.75 C-9.7928125 6.09804688 -10.710625 6.44609375 -11.65625 6.8046875 C-17.07011889 8.86348271 -22.45217045 10.97774111 -27.80078125 13.20117188 C-30.87462726 14.31769321 -33.75000362 14.71739162 -37 15 C-36 12 -36 12 -34.4609375 11.04296875 C-33.77257812 10.76066406 -33.08421875 10.47835938 -32.375 10.1875 C-31.57320313 9.85363281 -30.77140625 9.51976562 -29.9453125 9.17578125 C-28.48738281 8.59376953 -28.48738281 8.59376953 -27 8 C-25.74730032 7.49372584 -24.49470256 6.98719948 -23.2421875 6.48046875 C-19.50045818 4.9725051 -15.75086971 3.48507285 -12 2 C-10.65615234 1.41992188 -10.65615234 1.41992188 -9.28515625 0.828125 C-6.15239267 -0.3071671 -3.30029667 -0.1294234 0 0 Z " fill="#8AAEA5" transform="translate(327,450)"/>
<path d="M0 0 C3 3 3 3 3.34057617 5.54370117 C3.32486572 6.53345947 3.30915527 7.52321777 3.29296875 8.54296875 C3.28330078 9.61611328 3.27363281 10.68925781 3.26367188 11.79492188 C3.23853516 12.91447266 3.21339844 14.03402344 3.1875 15.1875 C3.16719727 16.88422852 3.16719727 16.88422852 3.14648438 18.61523438 C3.11109958 21.41063317 3.06172948 24.20507892 3 27 C3.77730469 27.2990625 4.55460938 27.598125 5.35546875 27.90625 C7.97730584 28.99061394 9.88400558 30.11911608 12 32 C12 32.66 12 33.32 12 34 C6.9005202 33.38188124 4.97717761 31.84410149 0 29 C0 19.43 0 9.86 0 0 Z " fill="#79A199" transform="translate(179,422)"/>
<path d="M0 0 C-0.33 1.65 -0.66 3.3 -1 5 C-4.45670732 6.17152378 -7.91562122 7.33639077 -11.375 8.5 C-12.85226563 9.00080078 -12.85226563 9.00080078 -14.359375 9.51171875 C-15.77089844 9.98544922 -15.77089844 9.98544922 -17.2109375 10.46875 C-18.08024902 10.76201172 -18.94956055 11.05527344 -19.84521484 11.35742188 C-22 12 -22 12 -24 12 C-24 11.34 -24 10.68 -24 10 C-25.32 9.67 -26.64 9.34 -28 9 C-23.71006667 7.49500991 -19.41777842 5.99685363 -15.125 4.5 C-13.90167969 4.07074219 -12.67835937 3.64148437 -11.41796875 3.19921875 C-10.25136719 2.79316406 -9.08476563 2.38710938 -7.8828125 1.96875 C-6.80402832 1.59169922 -5.72524414 1.21464844 -4.61376953 0.82617188 C-2 0 -2 0 0 0 Z " fill="#91B3AC" transform="translate(115,48)"/>
<path d="M0 0 C0.33 0 0.66 0 1 0 C1.66 20.46 2.32 40.92 3 62 C2.01 62 1.02 62 0 62 C0 41.54 0 21.08 0 0 Z " fill="#5C867C" transform="translate(471,416)"/>
<path d="M0 0 C-2.52455303 3.78682955 -5.16751581 4.34475703 -9.3125 5.625 C-9.97701172 5.8415625 -10.64152344 6.058125 -11.32617188 6.28125 C-18.77741721 8.66918619 -18.77741721 8.66918619 -22 9 C-22.99 8.34 -23.98 7.68 -25 7 C-5.82604895 -2.06730769 -5.82604895 -2.06730769 0 0 Z " fill="#84A79F" transform="translate(285,111)"/>
<path d="M0 0 C4.39383706 1.59623144 8.28995807 3.78024333 12.3125 6.125 C12.95767578 6.49753906 13.60285156 6.87007813 14.26757812 7.25390625 C15.84675945 8.16632213 17.42361864 9.08275509 19 10 C18.01 10.495 18.01 10.495 17 11 C16.67 11.99 16.34 12.98 16 14 C10.39 10.7 4.78 7.4 -1 4 C-0.34 3.67 0.32 3.34 1 3 C0.67 2.01 0.34 1.02 0 0 Z " fill="#90B3AC" transform="translate(190,453)"/>
<path d="M0 0 C4.6182583 0.54792895 7.98149647 2.58964488 11.8125 5.0625 C12.40998047 5.43955078 13.00746094 5.81660156 13.62304688 6.20507812 C15.08636577 7.12989566 16.54379523 8.06402065 18 9 C17.67 9.99 17.34 10.98 17 12 C12.61669388 10.69281227 8.99294509 8.99961987 5.125 6.5625 C4.15820312 5.96566406 3.19140625 5.36882812 2.1953125 4.75390625 C1.47085938 4.17511719 0.74640625 3.59632813 0 3 C0 2.01 0 1.02 0 0 Z " fill="#82AEA3" transform="translate(207,464)"/>
<path d="M0 0 C-2.62260075 3.17325358 -5.64750421 4.28734555 -9.4375 5.75 C-10.57058594 6.19859375 -11.70367187 6.6471875 -12.87109375 7.109375 C-15.89101199 7.9689772 -17.14728855 8.14949552 -20 7 C-20 6.34 -20 5.68 -20 5 C-17.61009899 3.96287315 -15.21473126 2.94531981 -12.8125 1.9375 C-12.13896484 1.64294922 -11.46542969 1.34839844 -10.77148438 1.04492188 C-6.78934489 -0.60620913 -4.14809665 -1.40954741 0 0 Z " fill="#85ACA4" transform="translate(287,146)"/>
<path d="M0 0 C0.66 1.32 1.32 2.64 2 4 C-0.4566947 5.00419637 -2.91518353 6.00350501 -5.375 7 C-6.42300781 7.42925781 -6.42300781 7.42925781 -7.4921875 7.8671875 C-12.7734375 10 -12.7734375 10 -15 10 C-15 9.34 -15 8.68 -15 8 C-16.32 7.67 -17.64 7.34 -19 7 C-12.73 4.69 -6.46 2.38 0 0 Z " fill="#83A9A2" transform="translate(199,41)"/>
<path d="M0 0 C0.66 0.33 1.32 0.66 2 1 C2 1.33 2 1.66 2 2 C2.99 2.33 3.98 2.66 5 3 C2.2120519 4.19696701 -0.57974417 5.38283014 -3.375 6.5625 C-4.56609375 7.07586914 -4.56609375 7.07586914 -5.78125 7.59960938 C-6.92207031 8.07817383 -6.92207031 8.07817383 -8.0859375 8.56640625 C-8.7876709 8.86490479 -9.4894043 9.16340332 -10.21240234 9.47094727 C-12 10 -12 10 -14 9 C-14.33 8.01 -14.66 7.02 -15 6 C-12.54524486 4.96971956 -10.08685649 3.95054496 -7.625 2.9375 C-6.57699219 2.49567383 -6.57699219 2.49567383 -5.5078125 2.04492188 C-3.69495092 1.30408902 -1.84876857 0.64603036 0 0 Z " fill="#8FB1AB" transform="translate(300,138)"/>
<path d="M0 0 C0 0.66 0 1.32 0 2 C-2.57861025 3.03444249 -5.16174635 4.05272284 -7.75 5.0625 C-8.47960937 5.35705078 -9.20921875 5.65160156 -9.9609375 5.95507812 C-10.66992188 6.22900391 -11.37890625 6.50292969 -12.109375 6.78515625 C-12.75874023 7.04176025 -13.40810547 7.29836426 -14.07714844 7.56274414 C-16.36632786 8.08330284 -17.79256664 7.72364304 -20 7 C-19.34 7 -18.68 7 -18 7 C-17.67 6.01 -17.34 5.02 -17 4 C-11.69972825 1.30020229 -5.99024449 -0.647594 0 0 Z " fill="#729D94" transform="translate(218,36)"/>
<path d="M0 0 C-3.04644169 3.48689109 -5.67288586 4.90368951 -10.0625 6.3125 C-11.10535156 6.65925781 -12.14820313 7.00601562 -13.22265625 7.36328125 C-16 8 -16 8 -19 7 C-14.40323149 1.20407449 -7.16362599 -0.55104815 0 0 Z " fill="#749E95" transform="translate(220,355)"/>
<path d="M0 0 C-4.97600025 5.48125566 -11.92570872 6.36836685 -19 7 C-14.51437207 1.291019 -7.03900938 -1.95178256 0 0 Z " fill="#7AA098" transform="translate(246,126)"/>
<path d="M0 0 C0 0.66 0 1.32 0 2 C-5.81475715 5.27591952 -10.24520726 7.7342166 -17 7 C-16.67 6.01 -16.34 5.02 -16 4 C-13.41796875 2.83203125 -13.41796875 2.83203125 -10.1875 1.8125 C-9.12917969 1.46832031 -8.07085937 1.12414062 -6.98046875 0.76953125 C-4 0 -4 0 0 0 Z " fill="#7DA39A" transform="translate(262,374)"/>
<path d="M0 0 C4.97209562 1.76429199 9.43438061 4.3939166 14 7 C13.01 7.99 12.02 8.98 11 10 C6.69235185 8.43358249 2.93828536 6.31663844 -1 4 C-0.67 2.68 -0.34 1.36 0 0 Z " fill="#92B3AC" transform="translate(307,37)"/>
<path d="M0 0 C0 0.99 0 1.98 0 3 C-5.445 4.485 -5.445 4.485 -11 6 C-11.33 5.34 -11.66 4.68 -12 4 C-12.33 4.33 -12.66 4.66 -13 5 C-14.66617115 5.04063832 -16.33388095 5.042721 -18 5 C-15.04433403 3.48795792 -12.05865561 2.10403598 -9 0.8125 C-8.154375 0.44769531 -7.30875 0.08289063 -6.4375 -0.29296875 C-3.80004641 -1.05799936 -2.54482404 -0.92485503 0 0 Z " fill="#93B3AC" transform="translate(132,89)"/>
<path d="M0 0 C0 0.66 0 1.32 0 2 C0.99 2.33 1.98 2.66 3 3 C-3.50071131 6.10382323 -7.88929109 7.58015754 -15 6 C-12.29954818 4.19969878 -9.93322119 3.06622934 -6.9375 1.875 C-6.05964844 1.52179687 -5.18179688 1.16859375 -4.27734375 0.8046875 C-2 0 -2 0 0 0 Z " fill="#94B4AE" transform="translate(228,30)"/>
<path d="M0 0 C-0.33 0.33 -0.66 0.66 -1 1 C-0.34 1.66 0.32 2.32 1 3 C-3.62 4.32 -8.24 5.64 -13 7 C-13 6.34 -13 5.68 -13 5 C-14.98 5.33 -16.96 5.66 -19 6 C-15.78117751 3.85411834 -12.54876914 2.60197657 -8.9375 1.3125 C-8.30005859 1.07466797 -7.66261719 0.83683594 -7.00585938 0.59179688 C-2.24081277 -1.12040638 -2.24081277 -1.12040638 0 0 Z " fill="#8EB0AA" transform="translate(407,399)"/>
<path d="M0 0 C0 0.99 0 1.98 0 3 C-1.7902061 3.67057887 -3.58221489 4.3363469 -5.375 5 C-6.37273437 5.37125 -7.37046875 5.7425 -8.3984375 6.125 C-11 7 -11 7 -13 7 C-12.67 5.35 -12.34 3.7 -12 2 C-10.37548581 1.66430703 -8.75037083 1.3315204 -7.125 1 C-6.22007812 0.814375 -5.31515625 0.62875 -4.3828125 0.4375 C-2 0 -2 0 0 0 Z " fill="#8CABA3" transform="translate(406,445)"/>
<path d="M0 0 C-0.33 0.99 -0.66 1.98 -1 3 C-3.28515625 3.94921875 -3.28515625 3.94921875 -6.0625 4.6875 C-7.44115234 5.06455078 -7.44115234 5.06455078 -8.84765625 5.44921875 C-9.55792969 5.63097656 -10.26820313 5.81273437 -11 6 C-11.33 4.68 -11.66 3.36 -12 2 C-10.56656 1.46809459 -9.12804633 0.94984742 -7.6875 0.4375 C-6.48673828 0.00244141 -6.48673828 0.00244141 -5.26171875 -0.44140625 C-3 -1 -3 -1 0 0 Z " fill="#8DACA5" transform="translate(430,391)"/>
<path d="M0 0 C0.33 0.66 0.66 1.32 1 2 C-5.02341941 4.68902652 -8.525862 5.27170568 -15 4 C-9.84599161 0.56399441 -6.22297833 -0.24403837 0 0 Z " fill="#90B5AE" transform="translate(327,450)"/>
<path d="M0 0 C-0.33 0.66 -0.66 1.32 -1 2 C-0.34 2.33 0.32 2.66 1 3 C-0.43344 3.53190541 -1.87195367 4.05015258 -3.3125 4.5625 C-4.51326172 4.99755859 -4.51326172 4.99755859 -5.73828125 5.44140625 C-8 6 -8 6 -11 5 C-11 4.01 -11 3.02 -11 2 C-9.54494642 1.47007308 -8.08581873 0.9513211 -6.625 0.4375 C-5.81289062 0.14746094 -5.00078125 -0.14257812 -4.1640625 -0.44140625 C-2 -1 -2 -1 0 0 Z " fill="#91B1AA" transform="translate(89,104)"/>
<path d="M0 0 C-0.66 0 -1.32 0 -2 0 C-2 0.66 -2 1.32 -2 2 C-1.34 2.33 -0.68 2.66 0 3 C-5.22270869 5.66464729 -8.0819503 6.32854177 -14 5 C-12.6045933 2.20918661 -10.98580959 1.96096994 -8.125 0.8125 C-7.24070312 0.44769531 -6.35640625 0.08289063 -5.4453125 -0.29296875 C-3 -1 -3 -1 0 0 Z " fill="#91B3AB" transform="translate(274,114)"/>
<path d="M0 0 C-0.33 0.99 -0.66 1.98 -1 3 C-3.28515625 3.94921875 -3.28515625 3.94921875 -6.0625 4.6875 C-7.44115234 5.06455078 -7.44115234 5.06455078 -8.84765625 5.44921875 C-9.55792969 5.63097656 -10.26820312 5.81273437 -11 6 C-11.33 4.68 -11.66 3.36 -12 2 C-7.82262526 0.40861915 -4.46839215 -0.21278058 0 0 Z " fill="#80A8A1" transform="translate(91,58)"/>
<path d="M0 0 C4.43090471 1.20842856 6.98112756 2.51668565 10 6 C9.67 6.66 9.34 7.32 9 8 C5.38058265 6.49760034 2.2678206 5.17854707 -1 3 C-0.67 2.01 -0.34 1.02 0 0 Z " fill="#89A7A1" transform="translate(263,12)"/>
<path d="M0 0 C0.66 0 1.32 0 2 0 C2 3.96 2 7.92 2 12 C1.01 12 0.02 12 -1 12 C-1.02687279 10.18757948 -1.04633715 8.37504767 -1.0625 6.5625 C-1.07410156 5.55316406 -1.08570313 4.54382813 -1.09765625 3.50390625 C-1 1 -1 1 0 0 Z " fill="#749A93" transform="translate(479,177)"/>
<path d="M0 0 C0 0.66 0 1.32 0 2 C0.99 2.33 1.98 2.66 3 3 C0.03 3.66 -2.94 4.32 -6 5 C-6 4.34 -6 3.68 -6 3 C-7.98 3.33 -9.96 3.66 -12 4 C-8.14070855 1.42713903 -4.66785662 0 0 0 Z " fill="#95B7AF" transform="translate(412,442)"/>
<path d="M0 0 C3.465 1.98 3.465 1.98 7 4 C6.67 4.99 6.34 5.98 6 7 C2.08788267 5.84414715 -0.8745041 4.64465038 -4 2 C-2.68 2 -1.36 2 0 2 C0 1.34 0 0.68 0 0 Z " fill="#92B1AB" transform="translate(239,481)"/>
<path d="M0 0 C0.495 0.391875 0.99 0.78375 1.5 1.1875 C0.5 3.1875 0.5 3.1875 -2.8125 4.5 C-6.5 5.1875 -6.5 5.1875 -8.9375 3.8125 C-9.453125 3.27625 -9.96875 2.74 -10.5 2.1875 C-3.28774617 -1.06851751 -3.28774617 -1.06851751 0 0 Z " fill="#8EB0AA" transform="translate(246.5,379.8125)"/>
<path d="M0 0 C0.33 0 0.66 0 1 0 C1.33 7.26 1.66 14.52 2 22 C1.01 22 0.02 22 -1 22 C-0.67 14.74 -0.34 7.48 0 0 Z " fill="#638A82" transform="translate(472,456)"/>
<path d="M0 0 C-0.33 0.33 -0.66 0.66 -1 1 C-0.01 1.33 0.98 1.66 2 2 C-0.95731007 3.23221253 -3.85715045 4.35087445 -7 5 C-9.5625 3.6875 -9.5625 3.6875 -11 2 C-9.73392393 1.46770674 -8.46189588 0.94955456 -7.1875 0.4375 C-6.47980469 0.14746094 -5.77210938 -0.14257812 -5.04296875 -0.44140625 C-3 -1 -3 -1 0 0 Z " fill="#9EC0B9" transform="translate(226,352)"/>
<path d="M0 0 C0.66 0.66 1.32 1.32 2 2 C0.73392393 2.53229326 -0.53810412 3.05044544 -1.8125 3.5625 C-2.52019531 3.85253906 -3.22789062 4.14257812 -3.95703125 4.44140625 C-6 5 -6 5 -9 4 C-8.34 4 -7.68 4 -7 4 C-7 3.34 -7 2.68 -7 2 C-8.32 2.33 -9.64 2.66 -11 3 C-10 1 -10 1 -7.1875 -0.1875 C-4.11626325 -0.97036427 -2.85034234 -1.22157529 0 0 Z " fill="#9CBCB7" transform="translate(320,133)"/>
<path d="M0 0 C0.99 0 1.98 0 3 0 C3.05386629 2.12472576 3.09273071 4.24983652 3.125 6.375 C3.14820313 7.55835938 3.17140625 8.74171875 3.1953125 9.9609375 C3 13 3 13 1 15 C1.01740234 14.00419922 1.01740234 14.00419922 1.03515625 12.98828125 C1.11893409 6.43693213 1.11893409 6.43693213 0 0 Z " fill="#6A988B" transform="translate(471,389)"/>
<path d="M0 0 C-0.66 0 -1.32 0 -2 0 C-2.33 0.99 -2.66 1.98 -3 3 C-5.64 3.33 -8.28 3.66 -11 4 C-11 3.01 -11 2.02 -11 1 C-3.375 -1.125 -3.375 -1.125 0 0 Z " fill="#739F96" transform="translate(265,119)"/>
<path d="M0 0 C-0.66 0 -1.32 0 -2 0 C-2 0.66 -2 1.32 -2 2 C-1.01 2.33 -0.02 2.66 1 3 C-1.64 3.66 -4.28 4.32 -7 5 C-7 4.34 -7 3.68 -7 3 C-8.32 2.67 -9.64 2.34 -11 2 C-9.73392393 1.46770674 -8.46189588 0.94955456 -7.1875 0.4375 C-6.47980469 0.14746094 -5.77210937 -0.14257812 -5.04296875 -0.44140625 C-3 -1 -3 -1 0 0 Z " fill="#9BBDB9" transform="translate(98,55)"/>
<path d="M0 0 C-0.33 0.66 -0.66 1.32 -1 2 C-3.06640625 2.4140625 -3.06640625 2.4140625 -5.5625 2.625 C-6.38878906 2.69976562 -7.21507812 2.77453125 -8.06640625 2.8515625 C-9.02353516 2.92503906 -9.02353516 2.92503906 -10 3 C-9.67 2.01 -9.34 1.02 -9 0 C-5.93109813 -1.53445094 -3.29905734 -0.54984289 0 0 Z " fill="#7BA39A" transform="translate(422,441)"/>
<path d="M0 0 C0.99 0 1.98 0 3 0 C3.17835515 4.54805635 2.99785435 7.8794254 1 12 C0.67 12 0.34 12 0 12 C0 8.04 0 4.08 0 0 Z " fill="#689087" transform="translate(479,108)"/>
<path d="M0 0 C2.375 0.125 2.375 0.125 5 1 C6.8125 3.5625 6.8125 3.5625 8 6 C3.68607774 5.5206753 1.83430453 4.2542015 -1 1 C-0.67 0.67 -0.34 0.34 0 0 Z " fill="#80A49D" transform="translate(300,34)"/>
<path d="M0 0 C2.00720923 0.28674418 4.0085944 0.61866701 6 1 C6 1.66 6 2.32 6 3 C6.66 3 7.32 3 8 3 C8 3.66 8 4.32 8 5 C4.625 4.6875 4.625 4.6875 1 4 C0.34 3.01 -0.32 2.02 -1 1 C-0.67 0.67 -0.34 0.34 0 0 Z " fill="#769D95" transform="translate(231,478)"/>
<path d="M0 0 C-2.83430453 3.2542015 -4.68607774 4.5206753 -9 5 C-9 4.34 -9 3.68 -9 3 C-9.66 2.67 -10.32 2.34 -11 2 C-7.17010894 0.19769832 -4.21878192 -0.19622241 0 0 Z " fill="#7EA79D" transform="translate(220,355)"/>
<path d="M0 0 C0 0.66 0 1.32 0 2 C-2.91708924 3.98362069 -4.12380904 3.9876191 -7.75 3.625 C-8.8225 3.41875 -9.895 3.2125 -11 3 C-10 1 -10 1 -8.3125 0.375 C-5.51555886 -0.07855802 -2.82858003 -0.06428591 0 0 Z " fill="#79A599" transform="translate(218,36)"/>
<path d="M0 0 C-0.33 1.32 -0.66 2.64 -1 4 C-3.64 4 -6.28 4 -9 4 C-9 3.34 -9 2.68 -9 2 C-5.62902617 0.50178941 -3.79557881 0 0 0 Z " fill="#8CAEA6" transform="translate(250,22)"/>
<path d="M0 0 C2 1 4 2 6 3 C1.05 4.485 1.05 4.485 -4 6 C-4 4.68 -4 3.36 -4 2 C-2.125 0.9375 -2.125 0.9375 0 0 Z " fill="#9DBDB5" transform="translate(289,462)"/>
<path d="M0 0 C0.33 0.99 0.66 1.98 1 3 C-2.37097383 4.49821059 -4.20442119 5 -8 5 C-7.67 4.01 -7.34 3.02 -7 2 C-3.4375 0.8125 -3.4375 0.8125 0 0 Z " fill="#6D9C92" transform="translate(316,453)"/>
<path d="M0 0 C2.875 -0.125 2.875 -0.125 6 0 C6.66 0.66 7.32 1.32 8 2 C4.62902617 3.49821059 2.79557881 4 -1 4 C-0.67 2.68 -0.34 1.36 0 0 Z " fill="#90B0A9" transform="translate(259,474)"/>
<path d="M0 0 C0.33 0.66 0.66 1.32 1 2 C-0.98 2.66 -2.96 3.32 -5 4 C-5 3.34 -5 2.68 -5 2 C-6.32 1.67 -7.64 1.34 -9 1 C-5.63579264 -0.58865348 -3.5299383 -1.5128307 0 0 Z " fill="#9EB9B4" transform="translate(189,47)"/>
<path d="M0 0 C0 0.99 0 1.98 0 3 C-2.64 3.33 -5.28 3.66 -8 4 C-8.33 3.01 -8.66 2.02 -9 1 C-2.25 0 -2.25 0 0 0 Z " fill="#759D96" transform="translate(394,404)"/>
<path d="M0 0 C0 0.66 0 1.32 0 2 C-1.8125 3.0625 -1.8125 3.0625 -4 4 C-4.99 3.67 -5.98 3.34 -7 3 C-6.67 2.67 -6.34 2.34 -6 2 C-7.32 1.67 -8.64 1.34 -10 1 C-3.71428571 -1.42857143 -3.71428571 -1.42857143 0 0 Z " fill="#9ABBB4" transform="translate(241,347)"/>
<path d="M0 0 C0.33 0 0.66 0 1 0 C1.04241723 2.33294775 1.04092937 4.66702567 1 7 C0 8 0 8 -2.5625 8.0625 C-3.366875 8.041875 -4.17125 8.02125 -5 8 C-5.33 7.34 -5.66 6.68 -6 6 C-5.38125 5.938125 -4.7625 5.87625 -4.125 5.8125 C-1.72238859 5.171081 -1.72238859 5.171081 -0.75 2.4375 C-0.5025 1.633125 -0.255 0.82875 0 0 Z " fill="#69968C" transform="translate(137,82)"/>
<path d="M0 0 C1.22589844 0.15275391 1.22589844 0.15275391 2.4765625 0.30859375 C3.41628906 0.43427734 3.41628906 0.43427734 4.375 0.5625 C1.18737635 2.68758244 -0.89012223 3.0645163 -4.625 3.5625 C-4.625 2.9025 -4.625 2.2425 -4.625 1.5625 C-5.285 1.2325 -5.945 0.9025 -6.625 0.5625 C-4.10446405 -0.69776798 -2.7707902 -0.35624445 0 0 Z " fill="#9FBBB6" transform="translate(71.625,64.4375)"/>
<path d="M0 0 C4.67692308 1.47692308 4.67692308 1.47692308 6.3125 4.125 C6.539375 4.74375 6.76625 5.3625 7 6 C4.36 5.34 1.72 4.68 -1 4 C-0.34 3.67 0.32 3.34 1 3 C0.67 2.01 0.34 1.02 0 0 Z " fill="#88AFA5" transform="translate(190,453)"/>
<path d="M0 0 C0 0.66 0 1.32 0 2 C-3.22791555 4.1519437 -4.28400809 4.20086443 -8 4 C-8 3.34 -8 2.68 -8 2 C-4.77208445 -0.1519437 -3.71599191 -0.20086443 0 0 Z " fill="#6D9A91" transform="translate(104,53)"/>
<path d="M0 0 C0 0.99 0 1.98 0 3 C-2.31 3.33 -4.62 3.66 -7 4 C-7.33 3.01 -7.66 2.02 -8 1 C-2.25 0 -2.25 0 0 0 Z " fill="#679188" transform="translate(406,445)"/>
<path d="M0 0 C0 0.99 0 1.98 0 3 C-2.95664519 4.4783226 -5.74229737 4.06032783 -9 4 C-8.01 3.67 -7.02 3.34 -6 3 C-6 2.34 -6 1.68 -6 1 C-4.02 0.67 -2.04 0.34 0 0 Z " fill="#67948A" transform="translate(110,96)"/>
<path d="M0 0 C2.475 0.495 2.475 0.495 5 1 C5 2.32 5 3.64 5 5 C2.525 4.01 2.525 4.01 0 3 C0 2.01 0 1.02 0 0 Z " fill="#719B92" transform="translate(219,471)"/>
<path d="M0 0 C0 0.66 0 1.32 0 2 C-2.97 2.66 -5.94 3.32 -9 4 C-8.67 3.01 -8.34 2.02 -8 1 C-5.17884816 -0.07009208 -3.09455459 0 0 0 Z " fill="#618E84" transform="translate(299,461)"/>
<path d="M0 0 C-3 2 -3 2 -7 2 C-7 1.34 -7 0.68 -7 0 C-7.66 -0.33 -8.32 -0.66 -9 -1 C-5.23375329 -2.25541557 -3.62811066 -1.37061958 0 0 Z " fill="#93B5AE" transform="translate(441,435)"/>
<path d="M0 0 C0.598125 0.350625 1.19625 0.70125 1.8125 1.0625 C-0.1875 3.0625 -0.1875 3.0625 -2.8125 3.1875 C-3.59625 3.14625 -4.38 3.105 -5.1875 3.0625 C-5.1875 2.0725 -5.1875 1.0825 -5.1875 0.0625 C-2.1875 -0.9375 -2.1875 -0.9375 0 0 Z " fill="#81A39C" transform="translate(280.1875,366.9375)"/>
<path d="M0 0 C0.66 0.33 1.32 0.66 2 1 C2 1.99 2 2.98 2 4 C0.35 4.33 -1.3 4.66 -3 5 C-3.66 4.01 -4.32 3.02 -5 2 C-2.625 0.9375 -2.625 0.9375 0 0 Z " fill="#7EA5A1" transform="translate(307,455)"/>
<path d="M0 0 C0 0.66 0 1.32 0 2 C0.66 2.33 1.32 2.66 2 3 C-0.25 3.6875 -0.25 3.6875 -3 4 C-5.3125 2.5625 -5.3125 2.5625 -7 1 C-4 0 -4 0 0 0 Z " fill="#8CB3AA" transform="translate(425,438)"/>
<path d="M0 0 C0 0.66 0 1.32 0 2 C0.99 2.33 1.98 2.66 3 3 C0.69 3.33 -1.62 3.66 -4 4 C-4.33 3.01 -4.66 2.02 -5 1 C-2 0 -2 0 0 0 Z " fill="#8BB0AB" transform="translate(193,44)"/>
<path d="M0 0 C-1.25 1.5625 -1.25 1.5625 -3 3 C-5.1875 2.6875 -5.1875 2.6875 -7 2 C-7 1.34 -7 0.68 -7 0 C-3.86650268 -1.04449911 -3.01031744 -0.93423645 0 0 Z " fill="#749A93" transform="translate(274,151)"/>
<path d="M0 0 C2.475 0.495 2.475 0.495 5 1 C5 1.99 5 2.98 5 4 C3.35 3.67 1.7 3.34 0 3 C0 2.01 0 1.02 0 0 Z " fill="#779F98" transform="translate(207,464)"/>
<path d="M0 0 C0 0.99 0 1.98 0 3 C-1 4 -1 4 -4.0625 4.0625 C-5.5165625 4.0315625 -5.5165625 4.0315625 -7 4 C-4.82575883 1.49962266 -3.26954202 0.56371414 0 0 Z " fill="#5D8D82" transform="translate(195,363)"/>
<path d="M0 0 C2.64 0 5.28 0 8 0 C7.67 0.66 7.34 1.32 7 2 C4.71484375 2.4140625 4.71484375 2.4140625 1.9375 2.625 C1.01839844 2.69976562 0.09929687 2.77453125 -0.84765625 2.8515625 C-1.55792969 2.90054688 -2.26820313 2.94953125 -3 3 C-2.01 2.67 -1.02 2.34 0 2 C0 1.34 0 0.68 0 0 Z " fill="#7BA199" transform="translate(320,131)"/>
<path d="M0 0 C0 0.66 0 1.32 0 2 C0.99 2.33 1.98 2.66 3 3 C1.02 3.33 -0.96 3.66 -3 4 C-3.66 3.01 -4.32 2.02 -5 1 C-2 0 -2 0 0 0 Z " fill="#90B5AD" transform="translate(254,121)"/>
</svg>
